<?xml version="1.0" standalone="no"?>
<!DOCTYPE svg PUBLIC "-//W3C//DTD SVG 20010904//EN"
 "http://www.w3.org/TR/2001/REC-SVG-20010904/DTD/svg10.dtd">
<svg version="1.0" xmlns="http://www.w3.org/2000/svg"
 width="512.000000pt" height="512.000000pt" viewBox="0 0 512.000000 512.000000"
 preserveAspectRatio="xMidYMid meet">

<g transform="translate(0.000000,512.000000) scale(0.100000,-0.100000)"
fill="#a86a24" stroke="none">
<path d="M445 5110 c-134 -18 -260 -92 -339 -200 -55 -74 -84 -149 -97 -249
-6 -49 -9 -810 -7 -2156 l3 -2080 22 -65 c55 -162 177 -282 337 -333 l71 -22
2125 0 2125 0 71 22 c163 52 285 174 337 338 l22 70 0 2125 0 2125 -22 71
c-51 160 -171 282 -333 337 l-65 22 -2095 1 c-1152 1 -2122 -2 -2155 -6z
m1695 -1940 c303 -740 409 -990 421 -990 19 0 -10 -68 493 1160 l335 815 483
0 483 0 0 -1600 0 -1600 -380 0 -380 0 -3 983 c-1 540 -5 982 -10 982 -4 0
-171 -415 -371 -923 -200 -507 -375 -946 -387 -975 l-23 -52 -241 2 -241 3
-383 975 c-211 536 -389 976 -395 978 -8 3 -11 -256 -11 -987 l0 -991 -380 0
-380 0 0 1605 0 1605 483 0 482 0 405 -990z"/>
</g>
</svg>
